#!OML:ASF E:\inclinewalkrobotboard\Project 1\Capture day 1\Session 1\subject1.ASF
:FULLY-SPECIFIED
:DEGREES
158
root 7.86258 16.6639 32.0676 -167.782 7.05696 178.415
lowerback 1.9396 4.35326 -6.60858
upperback 4.06909 6.04724 -0.582605
thorax 2.52631 2.94021 3.06513
lowerneck -5.87178 0.00118395 -3.72747
upperneck 23.4901 -2.14185 4.56438
head 8.30133 -1.48827 1.8897
rclavicle 9.93923e-015 -1.00386e-014
rhumerus -23.3496 -12.5702 -87.1261
rradius 35.7165
rwrist 7.68954
rhand -15.274 -37.4615
rfingers 7.12502
rthumb 10.9005 -67.1586
lclavicle 9.93923e-015 -1.00386e-014
lhumerus -37.1452 21.7848 72.9502
lradius 14.0099
lwrist -37.8773
lhand -22.2925 -18.0798
lfingers 7.12502
lthumb 4.12636 11.86
rfemur 3.65182 5.72032 20.0265
rtibia 15.8788
rfoot -6.71806 4.53365
rtoes -39.7957
lfemur -55.0337 -5.51451 -15.9687
ltibia 41.846
lfoot -17.6573 7.02092
ltoes -61.5437
159
root 7.83922 16.7752 31.81 -167.086 6.9172 178.416
lowerback 1.97449 4.44651 -6.91492
upperback 3.88761 6.15246 -0.700848
thorax 2.29101 2.99437 3.09531
lowerneck -6.03844 -0.232015 -3.50991
upperneck 23.5422 -2.53563 4.72091
head 8.36843 -1.63585 1.86961
rclavicle 1.65985e-014 8.34896e-015
rhumerus -24.0173 -13.398 -86.6358
rradius 35.2511
rwrist 7.57639
rhand -15.2151 -37.2052
rfingers 7.12502
rthumb 10.9573 -66.8993
lclavicle 1.65985e-014 8.34896e-015
lhumerus -36.0459 19.9022 74.4234
lradius 14.4665
lwrist -36.5781
lhand -22.0031 -17.3195
lfingers 7.12502
lthumb 4.40581 12.6147
rfemur 2.99271 5.99096 19.7514
rtibia 16.5435
rfoot -2.90248 4.83475
rtoes -38.7859
lfemur -54.2475 -5.80354 -16.238
ltibia 41.287
lfoot -18.6107 6.73741
ltoes -61.5897
160
root 7.80878 16.8993 31.5389 -166.526 6.76546 178.255
lowerback 1.84778 4.46247 -7.33751
upperback 3.82495 6.18215 -0.798036
thorax 2.26486 3.00134 3.23308
lowerneck -5.96862 -0.39686 -3.51904
upperneck 23.4213 -2.82248 4.99901
head 8.33163 -1.7442 1.93907
rclavicle 5.11871e-015 -3.25013e-014
rhumerus -24.5453 -14.2951 -85.9871
rradius 34.3467
rwrist 7.7106
rhand -15.1437 -36.9909
rfingers 7.12502
rthumb 11.0262 -66.6813
lclavicle 5.11871e-015 -3.25013e-014
lhumerus -34.9384 18.0609 76.0109
lradius 14.9247
lwrist -34.9152
lhand -22.4118 -17.4286
lfingers 7.12502
lthumb 4.01114 12.5134
rfemur 2.27704 6.11321 19.2308
rtibia 17.4406
rfoot 0.94831 4.71688
rtoes -38.3699
lfemur -53.1113 -6.21991 -16.7435
ltibia 40.4413
lfoot -19.4984 6.51707
ltoes -61.7545
161
root 7.77166 17.0293 31.2576 -166.09 6.72401 178.005
lowerback 1.69914 4.39866 -7.84036
upperback 3.79231 6.11187 -0.868804
thorax 2.28345 2.95467 3.44764
lowerneck -5.7154 -0.452156 -3.71446
upperneck 23.2387 -2.94549 5.31176
head 8.23496 -1.79531 2.0673
rclavicle 5.94366e-014 -2.82274e-014
rhumerus -25.1382 -15.3024 -85.1956
rradius 33.2262
rwrist 8.33662
rhand -15.226 -36.79
rfingers 7.12502
rthumb 10.9468 -66.4846
lclavicle 5.94366e-014 -2.82274e-014
lhumerus -34.0576 16.3274 77.5454
lradius 15.609
lwrist -33.0352
lhand -22.7277 -18.0285
lfingers 7.12502
lthumb 3.70604 11.919
rfemur 1.51515 6.19612 18.5529
rtibia 18.5556
rfoot 4.8808 4.43006
rtoes -39.1008
lfemur -51.6833 -6.63799 -17.392
ltibia 39.3458
lfoot -20.2994 6.47639
ltoes -62.0118
162
root 7.72012 17.1659 30.9775 -165.605 6.3757 177.492
lowerback 1.65188 4.22407 -8.22352
upperback 3.67094 5.88707 -1.1216
thorax 2.20216 2.84419 3.40032
lowerneck -5.64158 -0.533865 -3.68479
upperneck 23.275 -3.1409 5.52286
head 8.24618 -1.87345 2.11574
rclavicle 6.80837e-014 -9.93923e-017
rhumerus -26.0082 -16.823 -84.3621
rradius 32.172
rwrist 9.25055
rhand -15.5169 -36.8554
rfingers 7.12502
rthumb 10.6662 -66.5647
lclavicle 6.80837e-014 -9.93923e-017
lhumerus -33.2578 14.2311 78.9266
lradius 16.6041
lwrist -31.4994
lhand -22.3936 -18.0412
lfingers 7.12502
lthumb 4.02865 11.9005
rfemur 0.179269 5.67777 17.509
rtibia 20.6692
rfoot 8.52214 4.39039
rtoes -38.1867
lfemur -50.1939 -7.48358 -18.4561
ltibia 38.0027
lfoot -21.0159 6.18973
ltoes -62.1229
163
root 7.68508 17.2992 30.7027 -165.317 6.14125 177.556
lowerback 1.79966 4.12696 -8.25
upperback 3.61172 5.73999 -1.16445
thorax 2.07661 2.77757 3.35898
lowerneck -5.77494 -0.616749 -3.61861
upperneck 23.4132 -3.31187 5.61664
head 8.32723 -1.94167 2.11987
rclavicle -3.30728e-014 2.6339e-015
rhumerus -26.9266 -18.2773 -83.4683
rradius 31.0998
rwrist 9.76002
rhand -15.7225 -37.5344
rfingers 7.12502
rthumb 10.4678 -67.2538
lclavicle -3.30728e-014 2.6339e-015
lhumerus -32.5163 12.0647 80.2711
lradius 17.7348
lwrist -29.9301
lhand -22.2485 -18.0827
lfingers 7.12502
lthumb 4.16882 11.8563
rfemur -1.36323 5.80873 17.3257
rtibia 23.4386
rfoot 12.044 3.71995
rtoes -35.0075
lfemur -48.4214 -7.86356 -18.7488
ltibia 36.5037
lfoot -21.6239 5.95333
ltoes -62.0654
164
root 7.65084 17.4206 30.4322 -164.912 6.08539 177.697
lowerback 1.67896 4.02224 -8.36523
upperback 3.58646 5.60244 -1.08098
thorax 2.11562 2.70116 3.51982
lowerneck -6.03434 -0.627951 -3.70299
upperneck 23.4833 -3.30742 5.63967
head 8.40015 -1.93555 2.1414
rclavicle 3.81418e-014 -4.73604e-014
rhumerus -27.7421 -19.5171 -82.4203
rradius 29.9531
rwrist 9.8754
rhand -15.7864 -38.155
rfingers 7.12502
rthumb 10.4062 -67.8775
lclavicle 3.81418e-014 -4.73604e-014
lhumerus -31.7011 10.1562 81.7091
lradius 18.842
lwrist -28.1145
lhand -22.5905 -18.3055
lfingers 7.12502
lthumb 3.83854 11.6397
rfemur -3.45768 6.16621 17.2089
rtibia 26.7194
rfoot 15.5445 2.5367
rtoes -31.4056
lfemur -46.8157 -8.16252 -18.8386
ltibia 34.9577
lfoot -22.1152 5.9983
ltoes -62.0196
165
root 7.61061 17.5379 30.1667 -164.622 6.10049 177.745
lowerback 1.64015 3.93185 -8.54753
upperback 3.57883 5.47874 -0.981151
thorax 2.11966 2.63191 3.72798
lowerneck -6.35996 -0.616042 -3.79942
upperneck 23.6352 -3.25694 5.58632
head 8.50998 -1.91584 2.14343
rclavicle -2.2413e-014 2.88238e-015
rhumerus -28.677 -20.8753 -81.132
rradius 28.8941
rwrist 10.4135
rhand -15.5645 -38.4014
rfingers 7.12502
rthumb 10.6203 -68.1131
lclavicle -2.2413e-014 2.88238e-015
lhumerus -30.7651 8.47981 83.0892
lradius 19.8747
lwrist -26.6522
lhand -22.9105 -18.1692
lfingers 7.12502
lthumb 3.52953 11.7813
rfemur -6.21911 5.96247 16.8626
rtibia 31.1121
rfoot 18.5997 1.4359
rtoes -30.4263
lfemur -45.0712 -8.55779 -19.0816
ltibia 33.3483
lfoot -22.5361 6.3272
ltoes -62.1268
166
root 7.57357 17.6493 29.9226 -164.383 5.85352 177.842
lowerback 1.9316 3.76729 -8.60478
upperback 3.47601 5.21086 -0.852049
thorax 1.86515 2.50569 3.87184
lowerneck -6.46843 -0.637776 -3.80093
upperneck 23.679 -3.26026 5.47356
head 8.54379 -1.92563 2.10465
rclavicle 1.39895e-014 1.2275e-014
rhumerus -29.7862 -22.0785 -79.7627
rradius 27.9707
rwrist 11.3348
rhand -15.0899 -38.456
rfingers 7.12502
rthumb 11.078 -68.1436
lclavicle 1.39895e-014 1.2275e-014
lhumerus -30.0438 6.67809 84.313
lradius 21.1555
lwrist -25.2834
lhand -23.1761 -18.4394
lfingers 7.12502
lthumb 3.273 11.5152
rfemur -9.17336 5.61165 16.7536
rtibia 35.6564
rfoot 21.4405 -0.580665
rtoes -30.9326
lfemur -43.4967 -9.02443 -19.2932
ltibia 32.0047
lfoot -22.948 6.50068
ltoes -62.1603
